<svg width="452" height="174" viewBox="0 0 452 174" fill="none" xmlns="http://www.w3.org/2000/svg">
<path fill-rule="evenodd" clip-rule="evenodd" d="M131.04 93.7819L131.899 92.3124L163.762 146.844H100.036L101.06 145.092H69.7708L53 174H210.798L131.899 38L115.289 66.631L131.04 93.7819ZM85.5252 117.936L99.5977 93.6785L113.771 117.936H85.5252Z" fill="#4D51CC" fill-opacity="0.6"/>
<path fill-rule="evenodd" clip-rule="evenodd" d="M181.067 155.25L91 0L0.93335 155.25H181.067ZM127.373 124.25L91 62L54.6269 124.25H127.373Z" fill="#4D51CC"/>
<path d="M233.65 75.875C239.2 75.875 244.05 76.95 248.2 79.1C252.4 81.2 255.625 84.25 257.875 88.25C260.175 92.2 261.325 96.825 261.325 102.125C261.325 107.425 260.175 112.025 257.875 115.925C255.625 119.825 252.4 122.825 248.2 124.925C244.05 126.975 239.2 128 233.65 128H216.625V75.875H233.65ZM233.65 121.025C239.75 121.025 244.425 119.375 247.675 116.075C250.925 112.775 252.55 108.125 252.55 102.125C252.55 96.075 250.925 91.35 247.675 87.95C244.425 84.55 239.75 82.85 233.65 82.85H225.175V121.025H233.65ZM278.349 92.675C279.599 90.575 281.249 88.95 283.299 87.8C285.399 86.6 287.874 86 290.724 86V94.85H288.549C285.199 94.85 282.649 95.7 280.899 97.4C279.199 99.1 278.349 102.05 278.349 106.25V128H269.799V86.675H278.349V92.675ZM302.933 81.2C301.383 81.2 300.083 80.675 299.033 79.625C297.983 78.575 297.458 77.275 297.458 75.725C297.458 74.175 297.983 72.875 299.033 71.825C300.083 70.775 301.383 70.25 302.933 70.25C304.433 70.25 305.708 70.775 306.758 71.825C307.808 72.875 308.333 74.175 308.333 75.725C308.333 77.275 307.808 78.575 306.758 79.625C305.708 80.675 304.433 81.2 302.933 81.2ZM307.133 86.675V128H298.583V86.675H307.133ZM334.333 120.35L346.033 86.675H355.108L339.358 128H329.158L313.483 86.675H322.633L334.333 120.35ZM399.446 106.325C399.446 107.875 399.346 109.275 399.146 110.525H367.571C367.821 113.825 369.046 116.475 371.246 118.475C373.446 120.475 376.146 121.475 379.346 121.475C383.946 121.475 387.196 119.55 389.096 115.7H398.321C397.071 119.5 394.796 122.625 391.496 125.075C388.246 127.475 384.196 128.675 379.346 128.675C375.396 128.675 371.846 127.8 368.696 126.05C365.596 124.25 363.146 121.75 361.346 118.55C359.596 115.3 358.721 111.55 358.721 107.3C358.721 103.05 359.571 99.325 361.271 96.125C363.021 92.875 365.446 90.375 368.546 88.625C371.696 86.875 375.296 86 379.346 86C383.246 86 386.721 86.85 389.771 88.55C392.821 90.25 395.196 92.65 396.896 95.75C398.596 98.8 399.446 102.325 399.446 106.325ZM390.521 103.625C390.471 100.475 389.346 97.95 387.146 96.05C384.946 94.15 382.221 93.2 378.971 93.2C376.021 93.2 373.496 94.15 371.396 96.05C369.296 97.9 368.046 100.425 367.646 103.625H390.521ZM431.785 101.975L447.985 128H438.385L426.61 109.1L415.585 128H406.06L422.26 101.975L405.985 75.875H415.585L427.435 94.925L438.535 75.875H448.06L431.785 101.975Z" fill="#4D51CC"/>
</svg>
