<svg width="452" height="174" viewBox="0 0 452 174" fill="none" xmlns="http://www.w3.org/2000/svg">
<path fill-rule="evenodd" clip-rule="evenodd" d="M130.107 93.7819L130.966 92.3124L162.829 146.844H99.1026L100.126 145.092H68.8374L52.0667 174H209.865L130.966 38L114.356 66.631L130.107 93.7819ZM84.5918 117.936L98.6643 93.6785L112.838 117.936H84.5918Z" fill="#F5F5F5" fill-opacity="0.6"/>
<path fill-rule="evenodd" clip-rule="evenodd" d="M180.133 155.25L90.0666 0L0 155.25H180.133ZM126.44 124.25L90.0666 62L53.6936 124.25H126.44Z" fill="white"/>
<path d="M232.717 75.875C238.267 75.875 243.117 76.95 247.267 79.1C251.467 81.2 254.692 84.25 256.942 88.25C259.242 92.2 260.392 96.825 260.392 102.125C260.392 107.425 259.242 112.025 256.942 115.925C254.692 119.825 251.467 122.825 247.267 124.925C243.117 126.975 238.267 128 232.717 128H215.692V75.875H232.717ZM232.717 121.025C238.817 121.025 243.492 119.375 246.742 116.075C249.992 112.775 251.617 108.125 251.617 102.125C251.617 96.075 249.992 91.35 246.742 87.95C243.492 84.55 238.817 82.85 232.717 82.85H224.242V121.025H232.717ZM277.415 92.675C278.665 90.575 280.315 88.95 282.365 87.8C284.465 86.6 286.94 86 289.79 86V94.85H287.615C284.265 94.85 281.715 95.7 279.965 97.4C278.265 99.1 277.415 102.05 277.415 106.25V128H268.865V86.675H277.415V92.675ZM302 81.2C300.45 81.2 299.15 80.675 298.1 79.625C297.05 78.575 296.525 77.275 296.525 75.725C296.525 74.175 297.05 72.875 298.1 71.825C299.15 70.775 300.45 70.25 302 70.25C303.5 70.25 304.775 70.775 305.825 71.825C306.875 72.875 307.4 74.175 307.4 75.725C307.4 77.275 306.875 78.575 305.825 79.625C304.775 80.675 303.5 81.2 302 81.2ZM306.2 86.675V128H297.65V86.675H306.2ZM333.4 120.35L345.1 86.675H354.175L338.425 128H328.225L312.55 86.675H321.7L333.4 120.35ZM398.513 106.325C398.513 107.875 398.413 109.275 398.213 110.525H366.638C366.888 113.825 368.113 116.475 370.313 118.475C372.513 120.475 375.213 121.475 378.413 121.475C383.013 121.475 386.263 119.55 388.163 115.7H397.388C396.138 119.5 393.863 122.625 390.563 125.075C387.313 127.475 383.263 128.675 378.413 128.675C374.463 128.675 370.913 127.8 367.763 126.05C364.663 124.25 362.213 121.75 360.413 118.55C358.663 115.3 357.788 111.55 357.788 107.3C357.788 103.05 358.638 99.325 360.338 96.125C362.088 92.875 364.513 90.375 367.613 88.625C370.763 86.875 374.363 86 378.413 86C382.313 86 385.788 86.85 388.838 88.55C391.888 90.25 394.263 92.65 395.963 95.75C397.663 98.8 398.513 102.325 398.513 106.325ZM389.588 103.625C389.538 100.475 388.413 97.95 386.213 96.05C384.013 94.15 381.288 93.2 378.038 93.2C375.088 93.2 372.563 94.15 370.463 96.05C368.363 97.9 367.113 100.425 366.713 103.625H389.588ZM430.852 101.975L447.052 128H437.452L425.677 109.1L414.652 128H405.127L421.327 101.975L405.052 75.875H414.652L426.502 94.925L437.602 75.875H447.127L430.852 101.975Z" fill="white"/>
</svg>
